<svg width="22" height="22" viewBox="0 0 22 22" fill="none" xmlns="http://www.w3.org/2000/svg">
<g clip-path="url(#clip0_105_32053)">
<path d="M19.5024 2.75293H6.20531C5.59365 2.75293 5.11495 3.0632 4.79582 3.53303L0 10.7312L4.79582 17.9205C5.11495 18.3903 5.59365 18.7095 6.20531 18.7095H19.5024C20.4775 18.7095 21.2754 17.9116 21.2754 16.9365V4.52588C21.2754 3.55076 20.4775 2.75293 19.5024 2.75293ZM19.5024 16.9365H6.26737L2.12754 10.7312L6.2585 4.52588H19.5024V16.9365ZM9.22819 15.1636L12.4106 11.9811L15.5931 15.1636L16.843 13.9136L13.6606 10.7312L16.843 7.54875L15.5931 6.29882L12.4106 9.48126L9.22819 6.29882L7.97826 7.54875L11.1607 10.7312L7.97826 13.9136L9.22819 15.1636Z" fill="#3C4141" fill-opacity="0.7"/>
</g>
<defs>
<clipPath id="clip0_105_32053">
<rect width="21.2754" height="21.2754" fill="white" transform="translate(0 0.09375)"/>
</clipPath>
</defs>
</svg>
