<svg width="31" height="31" viewBox="0 0 31 31" fill="none" xmlns="http://www.w3.org/2000/svg">
<g filter="url(#filter0_d_105_30089)">
<path d="M13.9353 6.00773C14.2727 4.84385 15.9217 4.84385 16.259 6.00774L17.7405 11.1183C17.8527 11.5054 18.1502 11.8111 18.5341 11.9338L23.5887 13.5492C24.7106 13.9077 24.7106 15.4952 23.5887 15.8538L18.5341 17.4692C18.1502 17.5918 17.8527 17.8976 17.7405 18.2847L16.259 23.3952C15.9217 24.5591 14.2726 24.5591 13.9353 23.3952L12.4538 18.2847C12.3416 17.8976 12.0441 17.5918 11.6602 17.4692L6.60562 15.8538C5.48369 15.4952 5.48369 13.9077 6.60562 13.5492L11.6602 11.9338C12.0441 11.8111 12.3417 11.5054 12.4538 11.1183L13.9353 6.00773Z" fill="white"/>
<path d="M19.8847 9.82547L18.5828 5.33414C17.5707 1.84251 12.6237 1.84247 11.6115 5.33413L10.3096 9.82547L5.86911 11.2446C2.50331 12.3203 2.50328 17.0827 5.86911 18.1584L10.3096 19.5775L11.6115 24.0688C12.6236 27.5605 17.5706 27.5605 18.5828 24.0688L19.8847 19.5775L24.3252 18.1584C27.691 17.0827 27.691 12.3203 24.3252 11.2446L19.8847 9.82547Z" stroke="#14113C" stroke-width="4.83885"/>
</g>
<defs>
<filter id="filter0_d_105_30089" x="0.925327" y="0.295898" width="29.5534" height="30.0207" filterUnits="userSpaceOnUse" color-interpolation-filters="sRGB">
<feFlood flood-opacity="0" result="BackgroundImageFix"/>
<feColorMatrix in="SourceAlpha" type="matrix" values="0 0 0 0 0 0 0 0 0 0 0 0 0 0 0 0 0 0 127 0" result="hardAlpha"/>
<feOffset dx="1.20971" dy="1.20971"/>
<feComposite in2="hardAlpha" operator="out"/>
<feColorMatrix type="matrix" values="0 0 0 0 0.0784314 0 0 0 0 0.0666667 0 0 0 0 0.231373 0 0 0 1 0"/>
<feBlend mode="normal" in2="BackgroundImageFix" result="effect1_dropShadow_105_30089"/>
<feBlend mode="normal" in="SourceGraphic" in2="effect1_dropShadow_105_30089" result="shape"/>
</filter>
</defs>
</svg>
