<svg width="19" height="19" viewBox="0 0 19 19" fill="none" xmlns="http://www.w3.org/2000/svg">
<path fill-rule="evenodd" clip-rule="evenodd" d="M7.14534 10.3263L4.29462 9.37605C1.45115 8.42823 0.0294189 7.95432 0.0294189 7.0834C0.0294189 6.21248 1.45115 5.73857 4.29462 4.79075L14.5814 1.36183C16.5821 0.694917 17.5825 0.361459 18.1105 0.88952C18.6386 1.41758 18.3051 2.41795 17.6382 4.4187L14.2093 14.7054C13.2615 17.5489 12.7876 18.9706 11.9167 18.9706C11.0457 18.9706 10.5718 17.5489 9.62402 14.7054L8.67378 11.8547C8.66401 11.8254 8.65449 11.7969 8.64521 11.7691L13.8321 6.58217C14.2226 6.19165 14.2226 5.55848 13.8321 5.16796C13.4416 4.77743 12.8084 4.77743 12.4179 5.16796L7.23099 10.3549C7.20319 10.3456 7.17465 10.3361 7.14534 10.3263Z" fill="#3C4141" fill-opacity="0.7"/>
</svg>
