<svg width="38" height="42" viewBox="0 0 38 42" fill="none" xmlns="http://www.w3.org/2000/svg">
<g filter="url(#filter0_d_178_31951)">
<path fill-rule="evenodd" clip-rule="evenodd" d="M5.8173 3.90175C6.11611 3.33415 6.69113 2.91729 7.35144 2.85952L9.58292 2.66429C10.4842 2.58544 11.2265 3.20337 11.3246 4.07323C12.5398 2.86775 14.1532 2.06844 15.9169 1.91413C17.2763 1.7952 18.5464 2.07508 19.6138 2.66425C19.6504 2.59754 19.6912 2.53243 19.7361 2.46936C20.0676 2.00346 20.5833 1.70188 21.1304 1.65402L23.4734 1.44902C24.2795 1.3785 24.9817 1.86902 25.1749 2.6377L25.2537 2.95112L25.3541 2.57649C25.5636 1.79493 26.2551 1.20566 27.0438 1.13666L28.8569 0.978035C29.6455 0.909037 30.337 1.37731 30.5465 2.12222L30.6469 2.47928L30.7257 2.15206C30.919 1.34958 31.6211 0.736194 32.4272 0.665669L34.7703 0.460679C35.3174 0.412814 35.8331 0.624152 36.1646 1.03206C36.496 1.43996 36.6052 1.99763 36.4598 2.53978L33.7681 12.5753C33.5585 13.3567 32.8671 13.9458 32.0785 14.0148L29.5402 14.2369C28.8496 14.2973 28.2335 13.9457 27.9503 13.3571C27.6671 13.9953 27.051 14.4546 26.3604 14.5151L25.8574 14.5591C27.3932 15.6672 28.3779 17.488 28.3779 19.6792C28.3779 21.8705 27.3932 23.8636 25.8574 25.2405L27.9216 25.0599C28.5892 25.0015 29.1988 25.3288 29.4938 25.9042L29.7765 26.4556L30.0592 25.8547C30.3542 25.2278 30.9638 24.7937 31.6314 24.7353L34.1697 24.5132C34.7882 24.4591 35.361 24.7363 35.6767 25.2425C35.9925 25.7487 36.0046 26.4091 35.7085 26.9801L32.6449 32.8884V36.2059C32.6449 37.1776 31.8602 38.0339 30.8923 38.1186L28.6608 38.3138C28.2846 38.3467 27.9361 38.2582 27.6506 38.0807C27.3588 38.3127 27.007 38.4585 26.6407 38.4905L24.2 38.7041C23.4368 38.7708 22.7613 38.3341 22.5299 37.6243L22.4303 37.3189L21.3673 37.4119L21.2677 37.7347C21.0363 38.4851 20.3608 39.04 19.5976 39.1067L17.1569 39.3203C17.0868 39.3264 17.0171 39.3283 16.9484 39.326C16.8796 39.3403 16.8095 39.3506 16.7385 39.3569L11.0204 39.8571C10.0524 39.9418 9.26774 39.2228 9.26774 38.2512V36.1405C8.54252 36.658 7.69307 37.0119 6.77805 37.1406V38.469C6.77805 39.4406 5.99338 40.2969 5.02544 40.3816L2.79396 40.5769C1.82602 40.6615 1.04135 39.9425 1.04135 38.9709V29.1709C1.04135 28.1992 1.82602 27.3429 2.79396 27.2582L6.48985 26.9349C7.60489 26.8373 8.6341 27.089 9.47575 27.6009C9.62541 27.3085 9.84808 27.0549 10.1181 26.8682C10.0277 26.6638 9.97761 26.4345 9.97761 26.1891V20.3044L9.21981 20.3707C8.25187 20.4553 7.4672 19.7363 7.4672 18.7647V16.6087C7.4672 16.4565 7.48645 16.3072 7.52264 16.1631L7.35144 16.1781C6.69113 16.2359 6.11611 15.9196 5.8173 15.4043C5.51849 15.9719 4.94347 16.3888 4.28316 16.4466L2.05168 16.6418C1.08374 16.7265 0.299072 16.0075 0.299072 15.0358V5.23582C0.299072 4.26419 1.08374 3.40787 2.05168 3.32318L4.28316 3.12796C4.94347 3.07019 5.51849 3.38643 5.8173 3.90175ZM7.35144 8.37082L4.28316 8.63926V4.88726L2.05168 5.08249V14.8825L4.28316 14.6873V10.7953L7.35144 10.5268V14.4188L9.58292 14.2236V4.42359L7.35144 4.61882V8.37082ZM11.3246 14.2692C11.3153 14.3528 11.3004 14.4351 11.2801 14.5158L11.6082 14.4871C11.5114 14.4173 11.4168 14.3446 11.3246 14.2692ZM16.4721 15.8209L9.21981 16.4554V18.6114L11.7302 18.3917V26.0357L13.9617 25.8405V18.1965L16.4721 17.9769V15.8209ZM16.5636 19.7258C16.5035 20.0491 16.4721 20.3817 16.4721 20.7209C16.4721 23.6049 18.7454 25.618 21.5487 25.3727C24.352 25.1275 26.6253 22.7166 26.6253 19.8326C26.6253 16.9486 24.352 14.9355 21.5487 15.1807C20.2776 15.2919 19.1154 15.8484 18.2247 16.6924C17.8471 17.0502 17.5184 17.4597 17.2508 17.9087C16.9212 18.4618 16.6844 19.075 16.5636 19.7258ZM20.3345 13.6337C20.7288 13.5294 21.1346 13.4576 21.5487 13.4214C21.7263 13.4059 21.9024 13.3971 22.0767 13.395L21.6783 11.9792C21.309 12.5914 20.8552 13.1486 20.3345 13.6337ZM20.9129 9.25973C20.9659 8.95551 20.9935 8.64328 20.9935 8.32529C20.9935 7.00133 20.5144 5.86091 19.7249 5.03826C18.7946 4.06891 17.4333 3.54077 15.9169 3.67344C13.8976 3.85011 12.1532 5.15053 11.3355 6.94206C11.0181 7.63756 10.8403 8.40707 10.8403 9.21358C10.8403 10.0201 11.0181 10.7585 11.3355 11.3985C12.1532 13.0469 13.8976 14.0421 15.9169 13.8654C18.4111 13.6472 20.4858 11.7146 20.9129 9.25973ZM23.8221 12.9778L26.3604 12.7558L27.9503 6.83465L29.5402 12.4776L32.0785 12.2555L34.7703 2.21998L32.4272 2.42497L30.7397 9.43262L28.8569 2.73734L27.0438 2.89596L25.161 9.92069L23.4734 3.20833L21.1304 3.41332L23.8221 12.9778ZM15.7143 24.3836C16.4585 25.5419 17.574 26.4022 18.9004 26.8383C18.8687 26.9066 18.8407 26.977 18.8169 27.0494L16.6319 33.6916L15.0044 33.834V27.9493C15.0044 27.7038 14.9544 27.4745 14.8639 27.2702C15.3734 26.9179 15.7143 26.3276 15.7143 25.6872V24.3836ZM17.1569 37.561L19.5976 37.3474L20.0857 35.7647L23.7119 35.4475L24.2 36.9448L26.6407 36.7312L23.3214 27.2216L20.4762 27.4705L17.1569 37.561ZM21.8988 29.9081L20.7552 33.6061L23.0424 33.406L21.8988 29.9081ZM13.2518 35.7466V28.1026L11.0204 28.2978V38.0978L16.7385 37.5976V35.4416L13.2518 35.7466ZM28.6608 32.7885V36.5545L30.8923 36.3593V32.5933L34.1697 26.2725L31.6314 26.4946L29.7765 30.4369L27.9216 26.8192L25.3833 27.0412L28.6608 32.7885ZM9.26774 29.8369C8.65401 29.0497 7.65055 28.5927 6.48985 28.6942L2.79396 29.0175V38.8175L5.02544 38.6223V35.5423L6.48985 35.4142C7.65055 35.3127 8.65401 34.68 9.26774 33.7854C9.67168 33.1966 9.9068 32.4943 9.9068 31.7553C9.9068 31.0162 9.67168 30.355 9.26774 29.8369ZM15.9169 9.92213C16.5559 9.86623 17.0094 9.43525 17.0094 8.67386C17.0094 7.91246 16.5559 7.56084 15.9169 7.61674C15.2779 7.67265 14.8244 8.10363 14.8244 8.86502C14.8244 9.62642 15.2779 9.97804 15.9169 9.92213ZM21.5487 21.4294C22.1877 21.3735 22.6412 20.9425 22.6412 20.1811C22.6412 19.4197 22.1877 19.0681 21.5487 19.124C20.9097 19.1799 20.4562 19.6109 20.4562 20.3723C20.4562 21.1337 20.9097 21.4853 21.5487 21.4294ZM6.48985 33.3142C6.59016 33.3054 6.68657 33.2852 6.77805 33.2549C7.30982 33.0786 7.67532 32.5597 7.67532 31.9505C7.67532 31.3413 7.30982 30.8864 6.77805 30.8031C6.68657 30.7888 6.59016 30.7854 6.48985 30.7942L5.02544 30.9223V33.4423L6.48985 33.3142ZM18.762 8.52052C18.762 10.2705 17.5068 11.5423 15.9169 11.6814C14.327 11.8205 13.0718 10.7684 13.0718 9.01836C13.0718 7.26836 14.327 5.99654 15.9169 5.85744C17.5068 5.71834 18.762 6.77052 18.762 8.52052ZM24.3938 20.0278C24.3938 21.7778 23.1386 23.0496 21.5487 23.1887C19.9588 23.3278 18.7036 22.2756 18.7036 20.5256C18.7036 18.7756 19.9588 17.5038 21.5487 17.3647C23.1386 17.2256 24.3938 18.2778 24.3938 20.0278Z" fill="#371891"/>
</g>
<defs>
<filter id="filter0_d_178_31951" x="0.299072" y="0.454102" width="37.3967" height="41.3025" filterUnits="userSpaceOnUse" color-interpolation-filters="sRGB">
<feFlood flood-opacity="0" result="BackgroundImageFix"/>
<feColorMatrix in="SourceAlpha" type="matrix" values="0 0 0 0 0 0 0 0 0 0 0 0 0 0 0 0 0 0 127 0" result="hardAlpha"/>
<feOffset dx="1.17287" dy="1.17287"/>
<feComposite in2="hardAlpha" operator="out"/>
<feColorMatrix type="matrix" values="0 0 0 0 0 0 0 0 0 0 0 0 0 0 0 0 0 0 0.1 0"/>
<feBlend mode="normal" in2="BackgroundImageFix" result="effect1_dropShadow_178_31951"/>
<feBlend mode="normal" in="SourceGraphic" in2="effect1_dropShadow_178_31951" result="shape"/>
</filter>
</defs>
</svg>
