<?xml version="1.0" encoding="UTF-8" standalone="no" ?>
<!DOCTYPE svg PUBLIC "-//W3C//DTD SVG 1.1//EN" "http://www.w3.org/Graphics/SVG/1.1/DTD/svg11.dtd">
<svg xmlns="http://www.w3.org/2000/svg" xmlns:xlink="http://www.w3.org/1999/xlink" version="1.1" width="1080" height="1080" viewBox="0 0 1080 1080" xml:space="preserve">
<desc>Created with Fabric.js 5.2.4</desc>
<defs>
</defs>
<g transform="matrix(1 0 0 1 540 540)" id="12e8a063-66c0-41b8-bd6c-b8108b0188f0"  >
<rect style="stroke: none; stroke-width: 1; stroke-dasharray: none; stroke-linecap: butt; stroke-dashoffset: 0; stroke-linejoin: miter; stroke-miterlimit: 4; fill: rgb(255,255,255); fill-rule: nonzero; opacity: 1; visibility: hidden;" vector-effect="non-scaling-stroke"  x="-540" y="-540" rx="0" ry="0" width="1080" height="1080" />
</g>
<g transform="matrix(1 0 0 1 540 540)" id="7ae73495-6331-4d3c-87fd-34ead2786173"  >
</g>
<g transform="matrix(1 0 0 1 540 540)" id="dcc08e04-35e9-42cb-bb4f-4b5c2cff3ca6"  >
<path style="stroke: rgb(0,0,0); stroke-width: 0; stroke-dasharray: none; stroke-linecap: butt; stroke-dashoffset: 0; stroke-linejoin: miter; stroke-miterlimit: 4; fill: rgb(255,255,255); fill-rule: nonzero; opacity: 1;" vector-effect="non-scaling-stroke"  transform=" translate(-480, 480)" d="M 720 -80 Q 670 -80 635 -115 Q 600 -150 600 -200 Q 600 -207 601 -214.5 Q 602 -222 604 -228 L 322 -392 Q 305 -377 284 -368.5 Q 263 -360 240 -360 Q 190 -360 155 -395 Q 120 -430 120 -480 Q 120 -530 155 -565 Q 190 -600 240 -600 Q 263 -600 284 -591.5 Q 305 -583 322 -568 L 604 -732 Q 602 -738 601 -745.5 Q 600 -753 600 -760 Q 600 -810 635 -845 Q 670 -880 720 -880 Q 770 -880 805 -845 Q 840 -810 840 -760 Q 840 -710 805 -675 Q 770 -640 720 -640 Q 697 -640 676 -648.5 Q 655 -657 638 -672 L 356 -508 Q 358 -502 359 -494.5 Q 360 -487 360 -480 Q 360 -473 359 -465.5 Q 358 -458 356 -452 L 638 -288 Q 655 -303 676 -311.5 Q 697 -320 720 -320 Q 770 -320 805 -285 Q 840 -250 840 -200 Q 840 -150 805 -115 Q 770 -80 720 -80 Z M 720 -720 Q 737 -720 748.5 -731.5 Q 760 -743 760 -760 Q 760 -777 748.5 -788.5 Q 737 -800 720 -800 Q 703 -800 691.5 -788.5 Q 680 -777 680 -760 Q 680 -743 691.5 -731.5 Q 703 -720 720 -720 Z M 240 -440 Q 257 -440 268.5 -451.5 Q 280 -463 280 -480 Q 280 -497 268.5 -508.5 Q 257 -520 240 -520 Q 223 -520 211.5 -508.5 Q 200 -497 200 -480 Q 200 -463 211.5 -451.5 Q 223 -440 240 -440 Z M 720 -160 Q 737 -160 748.5 -171.5 Q 760 -183 760 -200 Q 760 -217 748.5 -228.5 Q 737 -240 720 -240 Q 703 -240 691.5 -228.5 Q 680 -217 680 -200 Q 680 -183 691.5 -171.5 Q 703 -160 720 -160 Z M 720 -760 Z M 240 -480 Z M 720 -200 Z" stroke-linecap="round" />
</g>
</svg>