<svg width="10" height="11" viewBox="0 0 10 11" fill="none" xmlns="http://www.w3.org/2000/svg">
<path d="M4.34155 1.20734C4.6258 0.686134 5.3742 0.686134 5.65845 1.20734L6.6987 3.11477C6.80657 3.31256 6.99764 3.45139 7.21909 3.49286L9.35462 3.89277C9.93815 4.00204 10.1694 4.71381 9.76156 5.1452L8.26895 6.72397C8.11416 6.88769 8.04118 7.11231 8.07017 7.33573L8.34975 9.49032C8.42614 10.0791 7.82068 10.519 7.28436 10.2644L5.32162 9.33267C5.11809 9.23606 4.88191 9.23606 4.67838 9.33267L2.71564 10.2644C2.17932 10.519 1.57386 10.0791 1.65025 9.49032L1.92983 7.33573C1.95882 7.11231 1.88584 6.88769 1.73105 6.72397L0.238438 5.1452C-0.16942 4.71381 0.0618458 4.00204 0.64538 3.89277L2.78091 3.49286C3.00236 3.45139 3.19343 3.31256 3.3013 3.11477L4.34155 1.20734Z" fill="#2B0856"/>
</svg>
