<svg width="19" height="19" viewBox="0 0 19 19" fill="none" xmlns="http://www.w3.org/2000/svg">
<path fill-rule="evenodd" clip-rule="evenodd" d="M7.14546 10.3263L4.29474 9.37605C1.45128 8.42823 0.029541 7.95432 0.029541 7.0834C0.029541 6.21248 1.45128 5.73857 4.29474 4.79075L14.5815 1.36183C16.5822 0.694917 17.5826 0.361459 18.1107 0.88952C18.6387 1.41758 18.3053 2.41795 17.6384 4.4187L14.2094 14.7054C13.2616 17.5489 12.7877 18.9706 11.9168 18.9706C11.0459 18.9706 10.572 17.5489 9.62414 14.7054L8.6739 11.8547C8.66413 11.8254 8.65462 11.7969 8.64533 11.7691L13.8322 6.58217C14.2228 6.19165 14.2228 5.55848 13.8322 5.16796C13.4417 4.77743 12.8085 4.77743 12.418 5.16796L7.23111 10.3549C7.20331 10.3456 7.17477 10.3361 7.14546 10.3263Z" fill="#3C4141" fill-opacity="0.7"/>
</svg>
