<svg width="15" height="15" viewBox="0 0 15 15" fill="none" xmlns="http://www.w3.org/2000/svg">
<mask id="path-1-outside-1_407_8183" maskUnits="userSpaceOnUse" x="-0.125" y="-0.125" width="16" height="16" fill="black">
<rect fill="white" x="-0.125" y="-0.125" width="16" height="16"/>
<path fill-rule="evenodd" clip-rule="evenodd" d="M13.125 7.5C13.125 10.6066 10.6066 13.125 7.5 13.125C4.3934 13.125 1.875 10.6066 1.875 7.5C1.875 4.3934 4.3934 1.875 7.5 1.875C10.6066 1.875 13.125 4.3934 13.125 7.5ZM7.50016 11.5105C7.01116 11.5105 6.61475 11.1141 6.61475 10.6251V8.38558H4.37492C3.88592 8.38558 3.4895 7.98916 3.4895 7.50016C3.4895 7.01116 3.88592 6.61475 4.37492 6.61475H6.61475V4.37506C6.61475 3.88606 7.01116 3.48964 7.50016 3.48964C7.98916 3.48964 8.38558 3.88606 8.38558 4.37506V6.61475H10.6249C11.1139 6.61475 11.5103 7.01116 11.5103 7.50016C11.5103 7.98916 11.1139 8.38558 10.6249 8.38558H8.38558V10.6251C8.38558 11.1141 7.98916 11.5105 7.50016 11.5105Z"/>
</mask>
<path fill-rule="evenodd" clip-rule="evenodd" d="M13.125 7.5C13.125 10.6066 10.6066 13.125 7.5 13.125C4.3934 13.125 1.875 10.6066 1.875 7.5C1.875 4.3934 4.3934 1.875 7.5 1.875C10.6066 1.875 13.125 4.3934 13.125 7.5ZM7.50016 11.5105C7.01116 11.5105 6.61475 11.1141 6.61475 10.6251V8.38558H4.37492C3.88592 8.38558 3.4895 7.98916 3.4895 7.50016C3.4895 7.01116 3.88592 6.61475 4.37492 6.61475H6.61475V4.37506C6.61475 3.88606 7.01116 3.48964 7.50016 3.48964C7.98916 3.48964 8.38558 3.88606 8.38558 4.37506V6.61475H10.6249C11.1139 6.61475 11.5103 7.01116 11.5103 7.50016C11.5103 7.98916 11.1139 8.38558 10.6249 8.38558H8.38558V10.6251C8.38558 11.1141 7.98916 11.5105 7.50016 11.5105Z" fill="#9D51FF"/>
<path d="M6.61475 8.38558H8.38558V6.61475H6.61475V8.38558ZM6.61475 6.61475V8.38558H8.38558V6.61475H6.61475ZM8.38558 6.61475H6.61475V8.38558H8.38558V6.61475ZM8.38558 8.38558V6.61475H6.61475V8.38558H8.38558ZM7.5 14.8958C11.5846 14.8958 14.8958 11.5846 14.8958 7.5H11.3542C11.3542 9.6286 9.6286 11.3542 7.5 11.3542V14.8958ZM0.104167 7.5C0.104167 11.5846 3.41539 14.8958 7.5 14.8958V11.3542C5.3714 11.3542 3.64583 9.6286 3.64583 7.5H0.104167ZM7.5 0.104167C3.41539 0.104167 0.104167 3.41539 0.104167 7.5H3.64583C3.64583 5.3714 5.3714 3.64583 7.5 3.64583V0.104167ZM14.8958 7.5C14.8958 3.41539 11.5846 0.104167 7.5 0.104167V3.64583C9.6286 3.64583 11.3542 5.3714 11.3542 7.5H14.8958ZM4.84391 10.6251C4.84391 12.0921 6.03315 13.2813 7.50016 13.2813V9.73965C7.98917 9.73965 8.38558 10.1361 8.38558 10.6251H4.84391ZM4.84391 8.38558V10.6251H8.38558V8.38558H4.84391ZM6.61475 6.61475H4.37492V10.1564H6.61475V6.61475ZM4.37492 6.61475C4.86392 6.61475 5.26034 7.01116 5.26034 7.50016H1.71867C1.71867 8.96717 2.90791 10.1564 4.37492 10.1564V6.61475ZM5.26034 7.50016C5.26034 7.98917 4.86392 8.38558 4.37492 8.38558V4.84391C2.90791 4.84391 1.71867 6.03316 1.71867 7.50016H5.26034ZM4.37492 8.38558H6.61475V4.84391H4.37492V8.38558ZM4.84391 4.37506V6.61475H8.38558V4.37506H4.84391ZM7.50016 1.71881C6.03316 1.71881 4.84391 2.90805 4.84391 4.37506H8.38558C8.38558 4.86406 7.98916 5.26048 7.50016 5.26048V1.71881ZM10.1564 4.37506C10.1564 2.90805 8.96717 1.71881 7.50016 1.71881V5.26048C7.01116 5.26048 6.61475 4.86406 6.61475 4.37506H10.1564ZM10.1564 6.61475V4.37506H6.61475V6.61475H10.1564ZM8.38558 8.38558H10.6249V4.84391H8.38558V8.38558ZM10.6249 8.38558C10.1359 8.38558 9.7395 7.98917 9.7395 7.50016H13.2812C13.2812 6.03315 12.0919 4.84391 10.6249 4.84391V8.38558ZM9.7395 7.50016C9.7395 7.01116 10.1359 6.61475 10.6249 6.61475V10.1564C12.0919 10.1564 13.2812 8.96717 13.2812 7.50016H9.7395ZM10.6249 6.61475H8.38558V10.1564H10.6249V6.61475ZM10.1564 10.6251V8.38558H6.61475V10.6251H10.1564ZM7.50016 13.2813C8.96717 13.2813 10.1564 12.0921 10.1564 10.6251H6.61475C6.61475 10.1361 7.01116 9.73965 7.50016 9.73965V13.2813Z" fill="white" mask="url(#path-1-outside-1_407_8183)"/>
</svg>
