<svg width="19" height="19" viewBox="0 0 19 19" fill="none" xmlns="http://www.w3.org/2000/svg">
<path fill-rule="evenodd" clip-rule="evenodd" d="M7.14536 10.3262L4.29464 9.37598C1.45117 8.42816 0.0294342 7.95425 0.0294342 7.08333C0.0294342 6.21242 1.45117 5.7385 4.29464 4.79068L14.5814 1.36177C16.5821 0.694852 17.5825 0.361394 18.1106 0.889455C18.6386 1.41752 18.3052 2.41789 17.6382 4.41864L14.2093 14.7054C13.2615 17.5488 12.7876 18.9706 11.9167 18.9706C11.0458 18.9706 10.5719 17.5488 9.62403 14.7054L8.67379 11.8547C8.66402 11.8254 8.65451 11.7968 8.64522 11.769L13.8321 6.58211C14.2226 6.19158 14.2226 5.55842 13.8321 5.16789C13.4416 4.77737 12.8084 4.77737 12.4179 5.16789L7.23101 10.3548C7.2032 10.3455 7.17466 10.336 7.14536 10.3262Z" fill="#3C4141" fill-opacity="0.7"/>
</svg>
