<svg width="68" height="69" viewBox="0 0 68 69" fill="none" xmlns="http://www.w3.org/2000/svg">
<path fill-rule="evenodd" clip-rule="evenodd" d="M26.6947 36.3884L16.2055 32.892C5.74297 29.4045 0.511719 27.6608 0.511719 24.4562C0.511719 21.2517 5.74296 19.508 16.2055 16.0205L16.2055 16.0205L54.0554 3.40383C61.4171 0.949919 65.098 -0.277036 67.041 1.66596C68.984 3.60895 67.757 7.28981 65.3031 14.6515L52.6865 52.5014C49.199 62.9639 47.4552 68.1952 44.2507 68.1952C41.0462 68.1952 39.3024 62.964 35.8149 52.5015L32.3185 42.0123C32.283 41.9057 32.2484 41.8019 32.2146 41.7007L51.2985 22.6168C52.7354 21.1798 52.7354 18.8501 51.2985 17.4132C49.8616 15.9763 47.5319 15.9763 46.0949 17.4132L27.0134 36.4947C26.91 36.4602 26.8038 36.4248 26.6947 36.3884L26.6947 36.3884Z" fill="#B20FFF"/>
</svg>
