<svg width="37" height="37" viewBox="0 0 37 37" fill="none" xmlns="http://www.w3.org/2000/svg">
<g filter="url(#filter0_d_607_1988)">
<path d="M16.9604 5.96708C17.2998 4.80718 18.9429 4.80718 19.2824 5.96708L21.4688 13.4377C21.582 13.8245 21.8804 14.1296 22.2647 14.2512L29.5993 16.5729C30.7255 16.9294 30.7255 18.5231 29.5993 18.8796L22.2647 21.2013C21.8804 21.3229 21.582 21.628 21.4688 22.0148L19.2824 29.4854C18.9429 30.6453 17.2998 30.6453 16.9604 29.4854L14.774 22.0148C14.6608 21.628 14.3624 21.3229 13.9781 21.2013L6.64346 18.8796C5.51727 18.5231 5.51727 16.9294 6.64346 16.5729L13.9781 14.2512C14.3624 14.1296 14.6608 13.8245 14.774 13.4377L16.9604 5.96708Z" fill="white"/>
<path d="M23.6097 12.1392L21.6044 5.28751C20.586 1.80779 15.6567 1.80782 14.6384 5.28752L12.6331 12.1392L5.91331 14.2663C2.53475 15.3358 2.53476 20.1167 5.91331 21.1862L12.6331 23.3133L14.6384 30.165C15.6567 33.6447 20.5861 33.6447 21.6044 30.165L23.6097 23.3133L30.3295 21.1862C33.708 20.1167 33.708 15.3358 30.3295 14.2663L23.6097 12.1392Z" stroke="#14113C" stroke-width="4.83885"/>
</g>
<defs>
<filter id="filter0_d_607_1988" x="0.959961" y="0.258789" width="35.5325" height="36.1453" filterUnits="userSpaceOnUse" color-interpolation-filters="sRGB">
<feFlood flood-opacity="0" result="BackgroundImageFix"/>
<feColorMatrix in="SourceAlpha" type="matrix" values="0 0 0 0 0 0 0 0 0 0 0 0 0 0 0 0 0 0 127 0" result="hardAlpha"/>
<feOffset dx="1.20971" dy="1.20971"/>
<feComposite in2="hardAlpha" operator="out"/>
<feColorMatrix type="matrix" values="0 0 0 0 0.0784314 0 0 0 0 0.0666667 0 0 0 0 0.231373 0 0 0 1 0"/>
<feBlend mode="normal" in2="BackgroundImageFix" result="effect1_dropShadow_607_1988"/>
<feBlend mode="normal" in="SourceGraphic" in2="effect1_dropShadow_607_1988" result="shape"/>
</filter>
</defs>
</svg>
